Coordinates
version=1
nRows=10
nColumns=40
inDegrees=yes

Units are S.I. units (second, meters, Newtons, ...)
If the header above contains a line with 'inDegrees', this indicates whether rotational values are in degrees (yes) or radians (no).

endheader
time	pelvis_tilt	pelvis_list	pelvis_rotation	pelvis_tx	pelvis_ty	pelvis_tz	hip_flexion_r	hip_adduction_r	hip_rotation_r	knee_angle_r	knee_angle_r_beta	ankle_angle_r	subtalar_angle_r	mtp_angle_r	hip_flexion_l	hip_adduction_l	hip_rotation_l	knee_angle_l	knee_angle_l_beta	ankle_angle_l	subtalar_angle_l	mtp_angle_l	lumbar_extension	lumbar_bending	lumbar_rotation	arm_flex_r	arm_add_r	arm_rot_r	elbow_flex_r	pro_sup_r	wrist_flex_r	wrist_dev_r	arm_flex_l	arm_add_l	arm_rot_l	elbow_flex_l	pro_sup_l	wrist_flex_l	wrist_dev_l
      5.10000000	      2.96981860	      5.67916572	     -5.14968190	      0.94629890	      1.06889670	     -0.49519576	     12.29443329	     -9.76629127	      5.01094696	     67.56079245	      1.17915827	    -12.61462855	      0.00000000	      0.00000000	     11.38906631	      6.16737106	     -9.97707470	     19.05221222	      0.33252383	      4.21743226	      0.00000000	      0.00000000	    -16.10251564	     -5.16201799	     -0.80163298	    -11.22393913	     -7.69780940	    -20.07507951	     50.27806872	     80.78648994	      0.00000000	      0.00000000	     -6.21305645	     -7.56560223	    -12.50801100	     44.46163349	     80.94036910	      0.00000000	      0.00000000
      5.10833300	      3.02764062	      5.50164101	     -5.07180449	      0.94608430	      1.07066179	     -0.49583285	     13.67279930	     -9.46368869	      5.05773469	     68.19678558	      1.19025845	    -11.85186805	      0.00000000	      0.00000000	     10.33994828	      6.21217888	     -9.51347390	     18.46498137	      0.32227472	      4.55535712	      0.00000000	      0.00000000	    -16.19289516	     -4.82210940	     -1.17365096	    -11.41272834	     -7.74840162	    -20.21840906	     49.54404551	     80.80953092	      0.00000000	      0.00000000	     -5.89614075	     -7.77702384	    -12.42415895	     44.81272507	     80.87475294	      0.00000000	      0.00000000
      5.11666700	      3.04499437	      5.33741541	     -4.99453006	      0.94591859	      1.07234000	     -0.49640332	     15.03179579	     -9.18427576	      5.03404278	     68.60297673	      1.19734782	    -10.95889312	      0.00000000	      0.00000000	      9.26551588	      6.26755174	     -9.06723416	     17.74074560	      0.30963442	      4.82010544	      0.00000000	      0.00000000	    -16.22596173	     -4.50648228	     -1.52242080	    -11.63218218	     -7.77193003	    -20.42567006	     48.81233644	     80.85926665	      0.00000000	      0.00000000	     -5.60982123	     -7.99965760	    -12.32478967	     45.21856502	     80.80845263	      0.00000000	      0.00000000
      5.12500000	      3.03725177	      5.09048280	     -4.89404454	      0.94562943	      1.07393290	     -0.49691685	     16.36534403	     -8.81174330	      4.91862374	     68.79139045	      1.20063626	    -10.24110504	      0.00000000	      0.00000000	      8.24637775	      6.19732474	     -8.81043233	     17.08406142	      0.29817312	      5.05140730	      0.00000000	      0.00000000	    -16.27175327	     -4.10253945	     -1.80351830	    -11.94441548	     -7.82014482	    -20.63008464	     48.29694760	     80.85273462	      0.00000000	      0.00000000	     -5.26071224	     -8.18001179	    -12.26234739	     45.60798503	     80.73237763	      0.00000000	      0.00000000
      5.13333300	      2.97132742	      4.86369643	     -4.78874692	      0.94530272	      1.07542761	     -0.49739991	     17.66571523	     -8.40598084	      4.85171395	     68.70303242	      1.19909412	     -9.40537717	      0.00000000	      0.00000000	      7.21186046	      6.15654994	     -8.48760332	     16.25601856	      0.28372105	      5.25920031	      0.00000000	      0.00000000	    -16.23416738	     -3.72100294	     -2.04606571	    -12.26837734	     -7.84518756	    -20.93977672	     47.76498272	     80.88447117	      0.00000000	      0.00000000	     -4.89138313	     -8.40074473	    -12.18872193	     46.03142846	     80.68099421	      0.00000000	      0.00000000
      5.14166700	      3.03339529	      4.70757695	     -4.66739088	      0.94493711	      1.07703769	     -0.49796441	     18.77542145	     -8.16691352	      4.66313121	     68.41117534	      1.19400025	     -8.59858911	      0.00000000	      0.00000000	      5.97726238	      6.21274419	     -8.12360276	     15.26879413	      0.26649073	      5.23554736	      0.00000000	      0.00000000	    -16.36832550	     -3.41592073	     -2.28015603	    -12.58876429	     -7.80386084	    -21.50287158	     47.25171940	     81.14615379	      0.00000000	      0.00000000	     -4.44496732	     -8.59082861	    -12.04261487	     46.38614216	     80.70619043	      0.00000000	      0.00000000
      5.15000000	      2.94076089	      4.41279030	     -4.57376703	      0.94442057	      1.07832421	     -0.49832553	     19.97003225	     -7.68272870	      4.52976520	     67.86391910	      1.18444883	     -7.98106454	      0.00000000	      0.00000000	      5.02641927	      6.04125984	     -7.91703686	     14.53395799	      0.25366542	      5.43330096	      0.00000000	      0.00000000	    -16.34106786	     -2.97040574	     -2.41643369	    -12.99671276	     -7.81728595	    -21.82530948	     46.95648260	     81.22156514	      0.00000000	      0.00000000	     -3.99886439	     -8.76911612	    -11.95122786	     46.79684851	     80.68047243	      0.00000000	      0.00000000
      5.15833300	      2.86087518	      4.15185384	     -4.48671082	      0.94398297	      1.07945940	     -0.49863925	     21.09520180	     -7.31080918	      4.25148908	     67.13456747	      1.17171924	     -7.40575725	      0.00000000	      0.00000000	      4.08412080	      5.89307114	     -7.77972511	     13.84605728	      0.24165929	      5.60725629	      0.00000000	      0.00000000	    -16.30485888	     -2.57674495	     -2.52524423	    -13.42682488	     -7.85290967	    -22.12942300	     46.67050438	     81.22581239	      0.00000000	      0.00000000	     -3.57877952	     -8.93365384	    -11.84971946	     47.26159884	     80.64165692	      0.00000000	      0.00000000
      5.16666700	      2.78483312	      3.97476320	     -4.40855925	      0.94356977	      1.08044728	     -0.49883073	     22.12856296	     -7.03112970	      3.98818646	     66.15611195	      1.15464197	     -6.89338831	      0.00000000	      0.00000000	      3.19810872	      5.80389458	     -7.66950758	     13.26736065	      0.23155913	      5.77248026	      0.00000000	      0.00000000	    -16.26430123	     -2.28575437	     -2.63406425	    -13.89252117	     -7.86104824	    -22.38056766	     46.41954067	     81.18323418	      0.00000000	      0.00000000	     -3.18853055	     -9.13190358	    -11.76094834	     47.76734385	     80.58700471	      0.00000000	      0.00000000
      5.17500000	      3.18491268	      3.72439154	     -4.30851215	      0.94316829	      1.08200112	     -0.49889735	     22.49998695	     -6.71108438	      3.63932713	     64.96945061	      1.13393083	     -6.07704008	      0.00000000	      0.00000000	      1.45632822	      5.73920981	     -7.03373332	     12.00036966	      0.20944596	      5.64629278	      0.00000000	      0.00000000	    -16.83658060	     -1.93096389	     -2.77775176	    -14.18072707	     -7.71918858	    -23.16297269	     46.20086050	     81.38954846	      0.00000000	      0.00000000	     -2.72759384	     -9.42251414	    -11.37199643	     48.43216895	     80.62259158	      0.00000000	      0.00000000
